<svg width="27" height="27" viewBox="0 0 27 27" fill="none" xmlns="http://www.w3.org/2000/svg">
<mask id="mask0_2018_252483" style="mask-type:luminance" maskUnits="userSpaceOnUse" x="0" y="0" width="27" height="27">
<path d="M26.7711 0H0V26.9559H26.7711V0Z" fill="white"/>
</mask>
<g mask="url(#mask0_2018_252483)">
<path d="M11.9465 3.81986C11.9398 3.79952 11.933 3.77919 11.9263 3.76224C11.6435 3.11147 11.2665 2.52511 10.7919 2.00314C10.2365 1.39305 9.58345 0.90836 8.83617 0.559252C8.3851 0.349109 7.9172 0.199975 7.43248 0.108461C7.2709 0.0779563 7.10596 0.0542305 6.94102 0.0372835C6.91072 0.0372835 6.88379 0.0305046 6.8535 0.0237258C6.83667 0.0203364 6.8434 0.00677881 6.8535 0H6.08938V0.0135576C5.87058 0.0237258 5.65514 0.0440623 5.43971 0.0779563C5.15022 0.122019 4.8641 0.186417 4.5847 0.274542C3.71287 0.545694 2.94202 0.993096 2.26542 1.60997C2.21829 1.65403 2.17453 1.69809 2.13077 1.74554C2.11394 1.7591 2.09375 1.77266 2.08028 1.78961C1.87831 1.98958 1.68981 2.19972 1.51813 2.42681C1.43398 2.53866 1.35656 2.6539 1.27577 2.76575C1.2724 2.76914 1.26567 2.77592 1.2623 2.77931C1.14449 2.95217 1.03677 3.13181 0.939153 3.31484C0.696789 3.76563 0.504918 4.23676 0.370272 4.72822C0.296216 5.00276 0.235625 5.28408 0.198597 5.5654C0.181767 5.70776 0.164936 5.85011 0.151471 5.99586C0.144739 6.07381 0.144739 6.15177 0.141373 6.22973C0.141373 6.25006 0.13464 6.2704 0.13464 6.29073C0.13464 6.49071 0.131274 6.6873 0.141373 6.88388C0.151471 7.03979 0.168302 7.19571 0.201964 7.35162C0.218794 7.4228 0.238991 7.49058 0.255822 7.56176C0.255822 7.57193 0.255822 7.58549 0.262555 7.59566C0.306315 7.75496 0.363539 7.90748 0.427496 8.06C0.578974 8.42267 0.770845 8.76161 0.986279 9.09038C1.35319 9.64964 1.77396 10.1547 2.16107 10.5749C2.23176 10.6529 2.29908 10.7342 2.36977 10.8088C2.53135 10.9783 2.69292 11.141 2.87133 11.2935C2.90162 11.3206 2.93192 11.3443 2.95548 11.3748C2.97905 11.4053 3.01271 11.4257 3.03964 11.4528C3.17428 11.5748 3.30556 11.6968 3.44358 11.8155C3.9485 12.2527 4.47362 12.6662 5.03577 13.0289C5.18725 13.1272 5.33872 13.2221 5.49357 13.3136C5.70227 13.439 5.9177 13.5508 6.14324 13.6424C6.27452 13.6966 6.41253 13.744 6.55391 13.7712C6.61787 13.7813 6.68519 13.7847 6.75251 13.7779C6.88043 13.7644 6.95448 13.683 6.95785 13.5542C6.95785 13.5102 6.95448 13.4661 6.94775 13.4254C6.93765 13.3509 6.91072 13.2797 6.88379 13.2085C6.84003 13.0967 6.78281 12.9882 6.72558 12.8797C6.67509 12.7882 6.62796 12.6933 6.5842 12.5984C6.45629 12.3171 6.35867 12.029 6.32838 11.7206C6.30481 11.4969 6.31828 11.2766 6.3856 11.0596C6.45629 10.8224 6.5842 10.6122 6.74578 10.4258C6.89389 10.2563 7.0622 10.1106 7.24734 9.9818C7.51663 9.7886 7.80612 9.63269 8.10234 9.48694C8.44906 9.31747 8.8025 9.16834 9.15595 9.01921C9.25694 8.97514 9.36129 8.93108 9.46227 8.88702C9.46227 8.88024 9.46227 8.87685 9.46227 8.87346C9.46227 8.87685 9.46227 8.88363 9.46227 8.88702C9.49257 8.87685 9.52286 8.86329 9.54979 8.85312C9.89987 8.70738 10.25 8.55486 10.5899 8.38539C10.866 8.24642 11.1386 8.09729 11.3911 7.91765C11.6032 7.76852 11.8018 7.60582 11.9734 7.40924C12.1215 7.24316 12.2427 7.06013 12.3302 6.85338C12.3538 6.79576 12.3706 6.73814 12.3908 6.68052C12.3942 6.67035 12.4009 6.66357 12.4009 6.65679C12.4447 6.49749 12.4716 6.3348 12.475 6.17211C12.4784 5.96196 12.4548 5.75182 12.4279 5.54507C12.3976 5.30103 12.3538 5.06377 12.2932 4.82651C12.2663 4.72144 12.236 4.61637 12.2057 4.5113C12.2023 4.49096 12.199 4.47062 12.1922 4.45029C12.1451 4.31471 12.1013 4.17914 12.0508 4.04356C12.0239 3.96899 11.9903 3.89782 11.96 3.82325" fill="#7A5AF8"/>
<path d="M14.7034 3.81985C14.7034 3.81985 14.6731 3.85035 14.663 3.86391C14.36 4.23674 14.0705 4.62313 13.8046 5.02647C13.7912 5.0502 13.7777 5.07393 13.7642 5.09765C13.7575 5.10782 13.7508 5.11799 13.744 5.12477C13.7373 5.13493 13.7272 5.14171 13.7238 5.15188C13.5892 5.36541 13.4613 5.58573 13.3468 5.81282C13.2694 5.96873 13.1987 6.12803 13.1449 6.29411C13.1146 6.3924 13.0876 6.4907 13.0775 6.59577C13.0708 6.64661 13.0674 6.70084 13.0843 6.75168C13.0977 6.8737 13.1684 6.94827 13.2829 6.97199C13.3401 6.98216 13.3973 6.98216 13.4512 6.97199C13.5858 6.95166 13.7171 6.91098 13.8383 6.84997C13.8585 6.84319 13.8787 6.83642 13.8955 6.82964C13.946 6.80591 13.9931 6.78219 14.0436 6.75846C14.3129 6.63305 14.5889 6.52798 14.8784 6.47036C15.1006 6.4263 15.3261 6.40596 15.555 6.43308C15.7503 6.4568 15.932 6.50764 16.1071 6.59577C16.3595 6.71779 16.5682 6.89743 16.75 7.10757C16.9015 7.28043 17.0328 7.47023 17.1506 7.67021C17.3054 7.9278 17.4367 8.19557 17.5579 8.47011C17.568 8.49384 17.5815 8.51756 17.5949 8.54129C17.5983 8.55484 17.6017 8.5684 17.6084 8.57857C17.7599 8.94802 17.9113 9.31407 18.0628 9.68352C18.2042 10.0326 18.3489 10.3817 18.5105 10.7207C18.6351 10.9817 18.7731 11.2393 18.9347 11.4799C19.0693 11.6833 19.2208 11.8731 19.3992 12.0358C19.6213 12.2425 19.8704 12.4018 20.1599 12.4899C20.4023 12.5645 20.6514 12.5815 20.9039 12.5611C21.0823 12.5476 21.2607 12.5272 21.4391 12.5001C21.7555 12.4493 22.0685 12.3781 22.3749 12.2832C23.2871 11.9985 24.0983 11.5307 24.8052 10.8834C24.987 10.7173 25.1553 10.541 25.3135 10.3546C25.8319 9.74791 26.219 9.06664 26.4749 8.31081C26.495 8.25319 26.5085 8.19557 26.5253 8.14134C26.5321 8.12439 26.5354 8.10405 26.5422 8.08711C26.5489 8.07355 26.5556 8.0566 26.559 8.04304C26.6095 7.86002 26.6533 7.6736 26.6869 7.48379C26.697 7.42956 26.7037 7.37194 26.7105 7.31432C26.7206 7.24992 26.7307 7.18891 26.7441 7.12113C26.7542 7.1279 26.761 7.13129 26.7677 7.13807V5.86027H26.7576C26.7408 5.65351 26.7105 5.44676 26.6701 5.2434C26.5556 4.66381 26.3638 4.11133 26.0877 3.58937C26.0709 3.55886 26.0507 3.52497 26.0339 3.49446C26.0238 3.47074 26.0103 3.44362 25.9969 3.4199C25.6131 2.74201 25.1217 2.15565 24.5258 1.66079C24.0344 1.25068 23.4958 0.918514 22.9067 0.671088C22.4456 0.477892 21.9743 0.325369 21.4795 0.254191C21.4694 0.244023 21.4593 0.237244 21.4458 0.250802C21.4189 0.247412 21.3919 0.244023 21.365 0.240633C21.3583 0.230465 21.3482 0.227076 21.3381 0.240633C21.3213 0.240633 21.3044 0.237244 21.2876 0.233855C21.2741 0.216908 21.2607 0.213518 21.2405 0.227076C21.2203 0.227076 21.2001 0.220297 21.1765 0.216908C21.1664 0.206739 21.1563 0.199961 21.1429 0.213518C21.0823 0.20335 21.025 0.196571 20.9644 0.189792C20.9577 0.176235 20.9476 0.176235 20.9375 0.189792C20.7726 0.159288 20.6076 0.159288 20.4427 0.152509C20.2777 0.14573 20.1162 0.152509 19.9512 0.162677C19.8805 0.162677 19.8099 0.169456 19.7392 0.179624C19.5439 0.20335 19.3487 0.247412 19.1602 0.308422C18.8236 0.413493 18.5038 0.562627 18.1941 0.735487C17.7902 0.959187 17.4131 1.22017 17.0496 1.50488C16.7635 1.72858 16.4841 1.96584 16.2182 2.21666C16.198 2.23699 16.171 2.25394 16.1508 2.27089C16.1475 2.27428 16.1407 2.28106 16.1374 2.28444C16.1273 2.298 16.1172 2.31495 16.1037 2.32512C16.0263 2.39968 15.9455 2.47425 15.8647 2.54543C15.7604 2.64033 15.6594 2.73862 15.5719 2.85048C15.5416 2.89115 15.5045 2.92504 15.4675 2.95894C15.4305 2.99622 15.3934 3.03011 15.3564 3.07079C15.3228 3.10807 15.2925 3.14535 15.2588 3.18264C15.2251 3.22331 15.1881 3.26059 15.1545 3.30127C15.0535 3.41651 14.9491 3.53175 14.8481 3.65037C14.7976 3.71138 14.7471 3.77239 14.6967 3.83679" fill="#7A5AF8"/>
<path d="M26.6533 20.5533C26.6533 20.411 26.6533 20.272 26.6465 20.1297C26.6432 19.9941 26.6297 19.8619 26.6061 19.7297C26.596 19.6789 26.5826 19.628 26.5725 19.5772C26.5691 19.5535 26.5657 19.5331 26.5624 19.5094C26.5186 19.323 26.458 19.14 26.3873 18.9603C26.2426 18.5977 26.0574 18.2519 25.8487 17.9232C25.5391 17.4317 25.1856 16.9775 24.8052 16.5437C24.7951 16.5335 24.7817 16.5233 24.7716 16.5132C24.7648 16.503 24.7581 16.4962 24.7514 16.4861C24.4619 16.1607 24.1589 15.8455 23.8425 15.5472C23.8324 15.537 23.8223 15.5302 23.8089 15.5235C23.7853 15.4896 23.755 15.4591 23.7213 15.4387C23.6708 15.4048 23.6237 15.3675 23.5901 15.3133C23.5295 15.2693 23.4722 15.2252 23.4217 15.1676C23.3847 15.154 23.3612 15.1201 23.3342 15.093C23.3275 15.0862 23.3208 15.0761 23.3107 15.0693C23.277 15.0523 23.2534 15.0252 23.2265 14.9981C23.2198 14.9913 23.213 14.9778 23.2029 14.9744C23.1693 14.9608 23.1525 14.9303 23.1255 14.91C23.0952 14.8896 23.0683 14.8693 23.0447 14.8388C23.0414 14.832 23.0346 14.8252 23.0313 14.8252C22.9909 14.8151 22.9707 14.7744 22.9337 14.7541C22.9 14.7337 22.8798 14.6964 22.8394 14.6795C22.8192 14.6422 22.7653 14.6354 22.7451 14.5948C22.7182 14.588 22.7014 14.5676 22.6812 14.5473C22.6644 14.5304 22.6374 14.5202 22.6172 14.4999C22.5903 14.4727 22.5566 14.4524 22.523 14.4287C22.5196 14.4253 22.5162 14.4185 22.5095 14.4151C22.4961 14.405 22.4826 14.3948 22.4658 14.388C22.4624 14.3846 22.459 14.3778 22.4523 14.3745L22.4085 14.3473C22.4085 14.3473 22.4018 14.3406 22.3951 14.3338C22.3816 14.3236 22.3681 14.3134 22.3513 14.3067C22.3479 14.3033 22.3446 14.2965 22.3378 14.2931C22.3244 14.2829 22.3109 14.2762 22.2941 14.266L22.2806 14.2524C22.2537 14.2389 22.2268 14.2219 22.2066 14.1982C22.1998 14.1914 22.1931 14.188 22.1864 14.1813C21.907 13.9813 21.6208 13.7881 21.3246 13.6152C21.1092 13.4898 20.8904 13.3746 20.6581 13.2865C20.5302 13.2356 20.3956 13.1949 20.2576 13.1746C20.1835 13.1644 20.1128 13.1644 20.0421 13.1814C19.9445 13.2051 19.8805 13.2661 19.8603 13.3644C19.8536 13.3881 19.8502 13.4153 19.8502 13.439C19.8469 13.5237 19.8603 13.6084 19.8839 13.6898C19.9209 13.8254 19.9748 13.9542 20.0354 14.0796C20.1027 14.2219 20.1667 14.3677 20.2205 14.5134C20.2878 14.6998 20.3383 14.8863 20.3754 15.0828C20.3956 15.2421 20.409 15.4014 20.3989 15.5607C20.3888 15.7607 20.3451 15.9539 20.2677 16.1403C20.1498 16.4217 19.9647 16.6521 19.7392 16.8555C19.7324 16.8623 19.7223 16.8623 19.7156 16.8691C19.7089 16.8724 19.7055 16.8758 19.6988 16.8826C19.692 16.8928 19.6887 16.9029 19.6786 16.9097C19.6449 16.9402 19.6079 16.9673 19.5742 16.9979C19.3588 17.1673 19.1299 17.3063 18.8909 17.4351C18.5745 17.6046 18.2446 17.7503 17.9147 17.8893C17.5377 18.0452 17.1607 18.1977 16.787 18.357C16.4706 18.4892 16.1576 18.6315 15.8546 18.7942C15.5988 18.9332 15.3531 19.0823 15.1275 19.2654C15.0501 19.3264 14.976 19.3874 14.9121 19.4619C14.8347 19.5263 14.7673 19.6009 14.7068 19.6823C14.562 19.8653 14.4509 20.0687 14.3802 20.2957C14.2894 20.5872 14.2826 20.8855 14.3196 21.1872C14.3196 21.1905 14.3196 21.1973 14.3196 21.2007C14.3398 21.3973 14.3634 21.5973 14.4004 21.7905C14.5014 22.326 14.6563 22.8412 14.8885 23.336C14.9525 23.4682 15.0164 23.597 15.0838 23.7292C15.0939 23.7495 15.1073 23.7665 15.1208 23.7868C15.1275 23.8038 15.1343 23.8207 15.1444 23.8343C15.2958 24.102 15.4641 24.3562 15.6526 24.6003C15.7873 24.7799 15.9421 24.9426 16.0835 25.1121C16.1609 25.2036 16.2552 25.2748 16.3393 25.3561C16.7298 25.7154 17.154 26.0238 17.6185 26.2747C18.2749 26.6271 18.9717 26.8509 19.7122 26.939C19.7358 26.939 19.7627 26.9458 19.7863 26.9525C19.8031 26.9593 19.7964 26.9695 19.7863 26.9763H19.8132C19.8132 26.9763 19.7964 26.9559 19.8132 26.9559C19.8435 26.9559 19.8772 26.9627 19.9108 26.9627C19.9782 26.9661 20.0455 26.9729 20.1162 26.9763H20.6076C20.6076 26.9763 20.6245 26.9661 20.6312 26.9661C20.6952 26.9661 20.7625 26.9661 20.8264 26.9661C20.8567 26.9661 20.8904 26.9661 20.9207 26.9661C20.9443 26.9627 20.9644 26.9559 20.988 26.9559C21.0991 26.9424 21.2135 26.9288 21.3246 26.9119C21.6276 26.8678 21.9272 26.7966 22.22 26.7051C23.2231 26.3865 24.0849 25.8306 24.8187 25.0748C24.9668 24.9223 25.1082 24.7562 25.2395 24.5867C25.7949 23.8716 26.1887 23.0717 26.421 22.1938C26.495 21.9159 26.5489 21.6312 26.5859 21.3465C26.6095 21.1702 26.623 20.9906 26.6331 20.8143C26.6364 20.7499 26.6331 20.6821 26.6331 20.6143C26.6331 20.6008 26.6364 20.5872 26.6331 20.5737L26.6533 20.5533Z" fill="#7A5AF8"/>
<path d="M13.5959 20.0009C13.5959 20.0009 13.5825 19.9907 13.5757 19.9839C13.5724 19.9839 13.569 19.9772 13.5656 19.9772C13.5084 19.9467 13.4478 19.9467 13.3872 19.9568C13.3132 19.967 13.2425 19.9873 13.1718 20.0144C13.0573 20.0585 12.9496 20.1093 12.8453 20.167C12.613 20.2958 12.374 20.411 12.1182 20.4923C11.859 20.5737 11.5931 20.6211 11.3204 20.5974C11.1521 20.5839 10.9905 20.5432 10.8323 20.4788C10.8087 20.4686 10.7852 20.4618 10.7616 20.4517C10.7481 20.4415 10.7347 20.4347 10.7212 20.4246C10.5462 20.333 10.3947 20.2144 10.2533 20.0721C10.1153 19.9331 9.99413 19.7806 9.88305 19.6179C9.86958 19.5975 9.85275 19.5772 9.83929 19.5569C9.83255 19.5433 9.82582 19.5298 9.81572 19.5162C9.7686 19.4349 9.7181 19.3569 9.67098 19.2756C9.50267 18.9807 9.35456 18.6722 9.22328 18.357C9.0617 17.9774 8.90349 17.5944 8.74528 17.2114C8.59381 16.8487 8.4356 16.4895 8.25719 16.137C8.11581 15.8624 7.96097 15.598 7.7792 15.354C7.62435 15.1473 7.45268 14.9574 7.24734 14.7948C6.89726 14.5236 6.50342 14.388 6.06245 14.3914C5.91098 14.3914 5.76287 14.4118 5.61475 14.4287C5.36229 14.4558 5.10983 14.4999 4.8641 14.5609C3.93841 14.7812 3.10023 15.1812 2.35294 15.7743C2.31592 15.8048 2.27889 15.8353 2.24186 15.8658C2.20483 15.8963 2.16781 15.9268 2.13414 15.9573C2.09712 15.9912 2.06345 16.0285 2.01969 16.0556C1.9793 16.0827 1.95237 16.12 1.91871 16.1539C1.83456 16.2353 1.75377 16.32 1.67298 16.4013C1.65278 16.4217 1.62922 16.4386 1.60902 16.4623C1.58883 16.4827 1.57536 16.5098 1.55516 16.5335C1.01321 17.1504 0.605907 17.8452 0.339981 18.6248C0.181771 19.0857 0.0841524 19.5603 0.0437585 20.0449C0.0370262 20.1093 0.03366 20.1737 0.0269277 20.2381H0.00336456V20.9533C0.00336456 20.9533 0.0201954 20.9364 0.0269277 20.9533C0.03366 20.9635 0.03366 20.9804 0.03366 20.994C0.0437585 21.1058 0.0572231 21.2177 0.0706878 21.3295C0.100983 21.5871 0.151476 21.8447 0.218799 22.0955C0.225531 22.1159 0.232263 22.1328 0.238996 22.1532C0.238996 22.1667 0.238996 22.1803 0.245728 22.1938C0.360178 22.6107 0.521753 23.0107 0.720357 23.3971C0.740554 23.4377 0.764117 23.475 0.78768 23.5157C0.801145 23.5394 0.811243 23.5665 0.824708 23.5903C0.942523 23.797 1.07044 23.9936 1.20845 24.1868C1.24884 24.241 1.28587 24.2986 1.33636 24.3461C1.34646 24.3597 1.35319 24.3732 1.36329 24.3868C1.42388 24.4613 1.48448 24.5359 1.54843 24.6071C1.58209 24.6478 1.62249 24.6817 1.65278 24.7257C1.68308 24.7698 1.72684 24.8003 1.7605 24.8376C1.82446 24.9121 1.90525 24.9698 1.96247 25.0511C1.96584 25.0579 1.97257 25.0613 1.9793 25.0647C2.00286 25.0816 2.02643 25.0985 2.04999 25.1189C2.17454 25.224 2.29572 25.3358 2.427 25.4375C3.13389 25.9934 3.92158 26.3831 4.78668 26.6136C5.10646 26.6983 5.42962 26.7594 5.75613 26.7933C5.93117 26.8136 6.10958 26.8271 6.28799 26.8305C6.43946 26.8305 6.58757 26.8305 6.73905 26.8305C6.8636 26.8271 6.98815 26.817 7.1127 26.8C7.3113 26.7729 7.50654 26.7255 7.69504 26.6611C8.04176 26.5458 8.36827 26.3865 8.68469 26.2001C9.13912 25.9357 9.55989 25.6239 9.96047 25.285C10.3913 24.9257 10.7919 24.5393 11.179 24.1326C11.7008 23.5801 12.1855 23.0005 12.6265 22.3802C12.8621 22.0515 13.0843 21.7125 13.2795 21.36C13.3031 21.316 13.3266 21.2719 13.3502 21.2278C13.3569 21.2143 13.3637 21.2007 13.3704 21.1838C13.3704 21.1804 13.367 21.177 13.3637 21.1736C13.3637 21.1736 13.367 21.1804 13.3704 21.1838C13.3872 21.1567 13.4041 21.1296 13.4175 21.1024C13.5084 20.9194 13.5926 20.7364 13.6498 20.5398C13.6801 20.4381 13.7003 20.3364 13.7003 20.2314C13.7003 20.1432 13.6801 20.0687 13.606 20.0144L13.5959 20.0009Z" fill="#7A5AF8"/>
</g>
</svg>
